# xmcd
#
# Track frame offsets: 
#        150
#        17942
#        35757
#        56710
#        77670
#        98022
#        111735
#        132490
#        153602
#        175462
#        191785
#        213777
#        231742
#
# Disc length: 3312 seconds
#
# Revision: 0
# Processed by: cddbd v1.5.2PL0 Copyright (c) Steve Scherf et al.
# Submitted via: ExactAudioCopy v0.99pb5
#
DISCID=c50cee0d
DTITLE=Various Artist - RIMI 20 лет! Русские звезды США поздравляют RIMI с юб
DTITLE=илеем! CD 1.
DYEAR=1995
DGENRE=Ballad
TTITLE0=Старый арбат - Зиновий Шершер
TTITLE1=Чери Брэнди - Александр Миньков
TTITLE2=Остров любви - Михаил Шуфутинский
TTITLE3=Дочери - Гари Голд
TTITLE4=Струна - Зиновий Шершер
TTITLE5=Глухари - Гриша Димант
TTITLE6=Давай, слетаем на луну - Гари Голд
TTITLE7=Давай согрешим - Эрика Рокк
TTITLE8=Плейбой - Марина Жданова
TTITLE9=Шарманка - Гари Голд
TTITLE10=От тебя до меня - Марина Жданова
TTITLE11=Друзья - Зиновий Шершер
TTITLE12=Мой дьявол - Эрика Рокк
EXTD=
EXTT0=
EXTT1=
EXTT2=
EXTT3=
EXTT4=
EXTT5=
EXTT6=
EXTT7=
EXTT8=
EXTT9=
EXTT10=
EXTT11=
EXTT12=
PLAYORDER=
